<svg xmlns:xlink="http://www.w3.org/1999/xlink" xmlns="http://www.w3.org/2000/svg" fill="none" viewBox="0 0 40 40" width="40"  height="40" ><g filter="url(#filter0_d_1094_22827)"><path fill="#FFDE99" d="M29.374 32.353c4.351-2.955 8.693-6.796 9.524-11.382.824-4.596-1.865-9.919-5.65-13.858C29.465 3.173 24.602.636 19.456.105 14.318-.425 8.907 1.06 5.55 4.417 2.202 7.773.91 12.989.953 17.875c.035 4.886 1.397 9.432 4.187 12.97 2.782 3.529 6.983 6.049 11.263 6.28 4.28.231 8.62-1.818 12.971-4.772z"/></g><path fill="#292929" fill-rule="evenodd" d="M16.132 13.482a2.85 2.85 0 115.7 0 2.85 2.85 0 01-5.7 0zm2.85-4.668a4.668 4.668 0 100 9.336 4.668 4.668 0 000-9.336zm-3.672 10.88a.91.91 0 00-1.07-1.471c-.936.681-2.29 1.915-2.702 4.448-.193 1.187.625 2.473 2.043 2.473H24.01v-.909.91c.888 0 1.606-.412 2.046-1.133.229-.374.33-.73.356-1.053a2.662 2.662 0 00-.027-.604l-.004-.03c-.106-.812-.802-2.586-2.616-4.07a.91.91 0 00-1.152 1.407c1.472 1.204 1.922 2.566 1.965 2.899l.009.067c.013.098.017.13.013.183a.564.564 0 01-.096.253c-.107.176-.235.262-.493.262v0H13.58c-.093 0-.147-.034-.187-.085a.362.362 0 01-.061-.279c.308-1.898 1.271-2.756 1.977-3.269z" clip-rule="evenodd"/><defs><filter id="filter0_d_1094_22827" width="38.095" height="38.961" x=".952" y="0" color-interpolation-filters="sRGB" filterUnits="userSpaceOnUse"><feFlood flood-opacity="0" result="BackgroundImageFix"/><feColorMatrix in="SourceAlpha" result="hardAlpha" values="0 0 0 0 0 0 0 0 0 0 0 0 0 0 0 0 0 0 127 0"/><feOffset dy="1.818"/><feColorMatrix values="0 0 0 0 0.882353 0 0 0 0 0.623529 0 0 0 0 0.0901961 0 0 0 0.5 0"/><feBlend in2="BackgroundImageFix" result="effect1_dropShadow_1094_22827"/><feBlend in="SourceGraphic" in2="effect1_dropShadow_1094_22827" result="shape"/></filter></defs></svg>