<svg xmlns:xlink="http://www.w3.org/1999/xlink" xmlns="http://www.w3.org/2000/svg" width="32" height="32"><path fill="none" stroke="#FFF" stroke-linecap="round" stroke-linejoin="round" stroke-width="2" d="M11.343 8.51H5.255A3.255 3.255 0 002 11.764v7.54a3.255 3.255 0 003.255 3.254h.074l2.155 3.714 2.743-3.714h7.239M6.87 17.715h6.306m-6.343-4.142h3.616m18.214 8.615c1.104-.583 2.172-1.743 1.79-2.605-.389-.883-1.567-2.452-2.582-2.64a1.373 1.373 0 00-.108-.014c-1.033-.09-1.525.494-2.408 1.081-.487.323-.94.55-1.413.461-.383-.07-.782-.35-1.223-.95-.988-1.336-3.129-4.371-3.163-5.249-.026-.628.795-1.12 1.522-1.691.611-.48 1.156-1.017 1.08-1.74-.107-1.002-1.236-3.09-2.684-3.359a1.73 1.73 0 00-1.185.211c-1.976 1.104-4.255 5.031.211 11.574 2.445 3.58 4.929 4.89 6.855 5.246 1.593.295 2.808-.062 3.308-.325z"/></svg>